<svg version="1.0" xmlns="http://www.w3.org/2000/svg" viewBox="75 193 760 187" xml:space="preserve"><path d="M101.1 198.4h36.5l30.9 68.1 31.9-68.1h36.5L261 373.6h-46.7l-10.2-72h-.5l-35 73.2-35-73.2h-.6l-10.2 72H76zm175.4 0h93.9l7.1 46.2h-55.2v18.3h36v46.2h-36v18.3h61.3l-11.9 46.2h-95.1V198.4zm112.7 0h108l4.6 44.3H466v130.9h-45.8V242.7h-35.8zm125.8 0h60.1c18 0 32.3 4.8 43 14.5q15.9 14.55 15.9 41.7c0 18.2-8 32.5-23.8 43.1l33.6 75.9h-51.6l-30.9-72.3h-.5v72.3H515zm45.8 82.3q13.35 0 20.4-5.1c4.7-3.4 7.1-8.9 7.1-16.5s-2.4-13.1-7.1-16.6q-7.05-5.1-20.4-5.1zm258.1 40.8c-4.6 11-11.2 21.1-19.6 29.6-8.3 8.5-18.1 15.2-29 19.8-22 9.4-46.9 9.4-68.9 0-10.9-4.6-20.7-11.4-29-19.8-8.3-8.5-14.9-18.6-19.5-29.6-9.4-22.8-9.4-48.3 0-71.1 4.6-11 11.2-21.1 19.6-29.6 8.3-8.5 18.1-15.2 29-19.8 22-9.4 46.9-9.4 68.9 0 10.9 4.6 20.7 11.4 29 19.8 8.4 8.5 15 18.6 19.6 29.6 9.4 22.8 9.4 48.3 0 71.1zM776 269.1c-2.2-5.4-5.3-10.3-9.4-14.5-4-4.2-8.7-7.5-14-9.9-5.2-2.3-10.9-3.5-16.6-3.5s-11.4 1.1-16.7 3.4c-5.2 2.2-9.9 5.5-13.9 9.6-4 4.2-7.2 9-9.4 14.3-4.5 11.1-4.5 23.6 0 34.7 2.2 5.4 5.4 10.3 9.4 14.5 3.9 4.1 8.6 7.4 13.9 9.6 5.3 2.3 10.9 3.4 16.7 3.4 5.7 0 11.4-1.2 16.7-3.5s10-5.7 14-9.9c12.3-12.7 16-31.7 9.3-48.2" style="fill:var(--sinon-black)"/></svg>