<svg viewBox="0 0 962 129" xmlns="http://www.w3.org/2000/svg" class="text-white home-logo">
  <path d="M402.26 101.72q-2.865 0-6.03-2.01c-2.11-1.34-3.88-3.59-5.31-6.74h-.13l-36.17-78.49h-1.14c-.1.96-.46 2.25-1.08 3.88-.61 1.64-1.29 3.3-2 5.02-.72 1.73-1.37 3.24-1.94 4.53-.58 1.29-.91 2.03-1.01 2.23l-29.7 63.68c-1.44 2.72-3.12 4.7-5.02 5.91q-3.165 2.01-6.03 2.01h-1.14v1.43h27.83v-1.43h-1.14c-1.72 0-3.26-.77-4.6-2.3-1.13-1.29-1.4-3.03-.82-5.22l7.67-18.02h34.13l7.51 18.12q.81 3.21-.84 5.13c-1.35 1.53-2.83 2.3-4.45 2.3h-1.14v1.43h33.72v-1.43h-1.17zM336.5 71.45l15.26-35.89 14.89 35.89zm-65.22-54.38v1.43h1.87c2.4 0 4.48.75 6.25 2.23s2.7 3.32 2.79 5.51v75.34c0 3.64-.67 7.17-2.01 10.62q-2.01 5.16-5.67 9.18c-2.43 2.67-5.28 4.59-8.53 5.74v1.43c3.83.1 7.51-.51 11.05-1.79 3.54-1.29 6.67-3.15 9.4-5.6 2.72-2.44 4.88-5.33 6.45-8.68 1.58-3.35 2.37-6.93 2.37-10.76V26.25c.1-2.2 1.02-4.04 2.79-5.53 1.77-1.48 3.85-2.23 6.25-2.23h1.87v-1.43h-34.88zm-40.34 0v1.43h2.43c2.2 0 4.07.72 5.6 2.15s2.35 3.2 2.44 5.31v54.99l-71.74-66.04h-1.29c.85 6.8 1.29 12.63 1.29 17.5v61.85c0 2.11-.77 3.88-2.3 5.31s-3.39 2.15-5.6 2.15h-2.43v1.43h31.42v-1.43h-2.3c-2.09 0-3.94-.72-5.51-2.15-1.59-1.43-2.37-3.2-2.37-5.31h-.01l-.11-55.48 71.72 66.39h1.29c-.48-3.35-.81-6.39-1-9.11s-.29-5.67-.29-8.82V25.97q0-3.165 2.37-5.31c1.58-1.43 3.42-2.15 5.53-2.15h2.43v-1.43h-31.57zm-87.41 3.65c1.77-1.48 3.94-2.23 6.52-2.23h1.87v-1.43h-35.29v1.43h2c2.49 0 4.62.75 6.39 2.23s2.7 3.32 2.79 5.53v67.72c-.1 2.11-1.02 3.92-2.79 5.45s-3.9 2.3-6.39 2.3h-2v1.43h35.29v-1.43h-1.87c-2.59 0-4.75-.77-6.52-2.3-1.78-1.53-2.71-3.35-2.8-5.45V26.25c.09-2.2 1.02-4.05 2.8-5.53m-67.34-18v1.43h2.73q3.72 0 6.24 2.52c1.67 1.67 2.56 3.76 2.66 6.23v66.04L11.48.57h-1.43c.95 6.89 1.43 12.87 1.43 17.94v74.47c0 2.38-.85 4.44-2.58 6.16-1.72 1.72-3.78 2.59-6.18 2.59H0v1.43h34.15v-1.43h-2.73c-2.4 0-4.44-.87-6.16-2.59s-2.59-3.78-2.59-6.16h-.01l-.11-66.17L99 105.17h1.3c-.48-3.35-.84-6.43-1.08-9.26-.24-2.82-.35-5.86-.35-9.11V12.9c.08-2.48 1-4.56 2.72-6.23s3.78-2.52 6.17-2.52h2.58V2.72zm799.54 97.79c-1.82-.82-3.51-1.99-5.09-3.53-1.58-1.52-3.37-3.44-5.38-5.73-1.82-2.3-3.61-4.62-5.38-6.96q-2.655-3.525-4.38-6.03c-1.14-1.67-1.82-2.61-2-2.8-1.44-2.19-3.31-4.49-5.6-6.88-2.3-2.38-4.45-3.91-6.46-4.59 4.41-.58 8.23-2.01 11.48-4.31 3.25-2.29 5.74-5.14 7.46-8.53s2.58-6.96 2.58-10.69c0-3.92-.73-7.34-2.21-10.26-1.49-2.93-3.58-5.36-6.25-7.32-2.68-1.96-5.84-3.42-9.47-4.38-3.64-.95-7.6-1.43-11.9-1.43h-38.74v1.43h1.78c2.21 0 4.1.75 5.67 2.23 1.43 1.35 2.25 3 2.44 4.95v68.85c-.19 1.88-1.01 3.51-2.44 4.9-1.56 1.53-3.45 2.3-5.67 2.3h-1.78v1.43h32.85l-.14-1.43h-1.72c-2.2 0-4.08-.75-5.67-2.23-1.58-1.48-2.36-3.32-2.36-5.53V21.99c.59.06 2 .07 4.23.02 2.73-.05 5.86-.02 9.4.07 2.4.1 4.61.51 6.67 1.23 2.06.71 3.92 1.77 5.6 3.15 1.67 1.38 3 3.13 3.95 5.24s1.53 4.63 1.72 7.61c.1 1.53.05 2.94-.14 4.22-.19 1.3-.42 2.37-.71 3.23-1.16 4.02-2.78 6.97-4.89 8.84s-4.37 3.01-6.81 3.44c-2.43.42-4.9.69-7.39.78-1.91.1-4.1.1-6.6 0v1.43c2.3 0 4.51.89 6.67 2.66 2.15 1.77 4.09 4 5.81 6.67.29.58 1 1.77 2.15 3.59 1.14 1.82 2.41 3.8 3.8 5.96 1.38 2.15 2.7 4.19 3.95 6.1 1.24 1.91 2.14 3.2 2.72 3.86 1.72 2.4 3.73 4.6 6.03 6.61 2.29 2.01 5.16 3.59 8.61 4.73 3.44 1.14 7.79 1.72 13.06 1.72h6.89v-1.43c-2.42 0-4.53-.41-6.34-1.21m55.72-83.44v1.43h1.72c2.01 0 3.51.82 4.53 2.44.95 1.54.96 3.18.06 4.9l-21.15 35.28-20.02-35.31c-.81-1.63-.79-3.23.07-4.8.9-1.67 2.41-2.52 4.51-2.52h1.58v-1.43h-36.73v1.43h1.72c2.77 0 5.28.65 7.54 1.94 2.24 1.29 4.08 3.05 5.53 5.24h.08l26.02 40.82v27.48c-.1 2.11-.91 3.92-2.44 5.45s-3.44 2.3-5.73 2.3h-1.72v1.43h32.99v-1.43h-1.72c-2.2 0-4.08-.77-5.67-2.3-1.58-1.53-2.42-3.35-2.5-5.45v-27.3l26.75-40.99.23-.01c1.34-1.91 3.15-3.59 5.45-5.02 2.29-1.43 4.78-2.15 7.46-2.15h1.72v-1.43zM783.3 41.67c-2.48-5.5-5.95-10.23-10.4-14.2-4.44-3.96-9.67-7.03-15.64-9.18-5.98-2.14-12.51-3.23-19.58-3.23-6.98 0-13.45 1.08-19.37 3.23-5.93 2.15-11.15 5.22-15.65 9.18-4.49 3.97-7.96 8.7-10.4 14.2-2.43 5.5-3.66 11.65-3.66 18.44s1.23 12.94 3.66 18.44c2.44 5.5 5.91 10.23 10.4 14.2 4.5 3.97 9.71 7.03 15.65 9.18 5.92 2.14 12.39 3.23 19.37 3.23 7.08 0 13.6-1.08 19.58-3.23 5.97-2.15 11.19-5.21 15.64-9.18s7.92-8.7 10.4-14.2c2.49-5.5 3.73-11.65 3.73-18.44.01-6.79-1.23-12.94-3.73-18.44M768.03 81.2c-3.01 6.03-7.15 10.74-12.41 14.13-5.26 3.41-11.24 5.1-17.94 5.1-6.51 0-12.39-1.7-17.65-5.1-5.26-3.39-9.43-8.1-12.48-14.13-3.07-6.02-4.6-13.05-4.6-21.09 0-8.13 1.53-15.18 4.6-21.16 3.06-5.98 7.22-10.66 12.48-14.06 5.26-3.39 11.13-5.09 17.65-5.09 6.69 0 12.68 1.7 17.94 5.09s9.4 8.08 12.41 14.06 4.51 13.04 4.51 21.16c0 8.04-1.5 15.07-4.51 21.09m-88.47-.57c-1.24 3.44-2.86 6.5-4.88 9.17a20.76 20.76 0 0 1-7.54 6.25c-3.01 1.48-6.76 2.23-11.27 2.23h-20.23V62.7h21.67c2.49 0 4.38.73 5.67 2.21 1.29 1.49 1.94 3.33 1.94 5.52v1.58h1.58V48.49h-1.58v1.58c0 2.11-.65 3.92-1.94 5.45s-3.18 2.29-5.67 2.29h-21.67V21.94h26.7c2.86 0 5.12.89 6.74 2.66 1.63 1.77 2.43 4.04 2.43 6.81v1.87h1.44V14.77c-1.16.48-3.36.99-6.61 1.5-3.25.53-6.36.79-9.32.79h-44.49v1.43h2.01c2.3 0 4.21.72 5.74 2.15s2.3 3.25 2.3 5.45v67.87c0 2.11-.77 3.92-2.3 5.45s-3.44 2.3-5.74 2.3h-2.01v1.43h61.41l7.03-22.52h-1.41zM495.34 1.14c-2.01.38-4.19.72-6.52 1-2.35.29-4.57.43-6.68.43h-50.93c-2.01 0-4.21-.14-6.6-.43-2.4-.28-4.57-.61-6.54-1-1.96-.38-3.42-.77-4.37-1.14v20.37l1.43-.14v-2.14c0-3.07.98-5.57 2.94-7.54 1.96-1.96 4.48-3 7.54-3.09H450V92.7c-.1 2.49-1.02 4.61-2.79 6.38s-3.9 2.66-6.38 2.66h-1.87v1.43h35.44v-1.43h-1.87c-2.49 0-4.62-.89-6.39-2.66s-2.7-3.89-2.79-6.38V7.46h24.39c3.07.1 5.57 1.13 7.54 3.09 1.96 1.96 2.95 4.47 2.95 7.54v2.14l1.43.14V0c-.88.37-2.31.76-4.32 1.14m97.24 25.11v67.72c.1 2.11.91 3.92 2.44 5.45s3.39 2.3 5.6 2.3h1.72v1.43h-32.57v-1.43h1.58c2.3 0 4.21-.77 5.74-2.3s2.34-3.35 2.43-5.45v-31H531.6v31c.1 2.11.94 3.92 2.52 5.45s3.47 2.3 5.67 2.3h1.72v1.43h-32.72v-1.43h1.72c2.2 0 4.09-.77 5.67-2.3s2.41-3.35 2.5-5.45V26.25c-.1-2.2-.93-4.04-2.5-5.52-1.58-1.48-3.47-2.23-5.67-2.23h-1.72v-1.43h32.72v1.43h-1.72c-2.2 0-4.09.75-5.67 2.23q-2.37 2.22-2.52 5.52V58.1h47.92V26.25c-.1-2.2-.9-4.04-2.43-5.52s-3.44-2.23-5.74-2.23h-1.58v-1.43h32.57v1.43h-1.72c-2.2 0-4.07.75-5.6 2.23s-2.35 3.32-2.44 5.52" fill="currentColor"/>
</svg>
