<svg xmlns="http://www.w3.org/2000/svg" viewBox="0 0 1920 1080" style="enable-background:new 0 0 1920 1080" xml:space="preserve"><style>.st2{fill:#8bd0cb}.st5{fill:#fff}.st6{fill:#4f505d}.st9{fill:#e36f6b}.st10{fill:#7a6d78}</style><path style="fill:transparent" d="M0 0h1920v1080H0z" id="Layer_4"/><g id="Layer_2"><path class="st2" d="m969.6 1039.8 7.2 40.2h15.3l-7-33.3 61.4-9.9 3.3 3.3 9.8 39.9h16.3l-15.3-55.7z"/><path d="m953.5 1000.5 8 34.7s11 31.4 59.7 20.7 41.4-46 41.4-46l-8.9-33.2-100.2 23.8" style="fill:#eebe72"/><path class="st2" d="m1054.1 876.2 18.4-12s14-11 4.9-37.5c-7.7-26.6-14.3-41.4-14.3-41.4s-4.1-6.6 2-9.4c6.1-2.8 9.4 2.8 9.4 2.8s35.7 69.4 11.5 90.1c-24.3 20.7-26.6 18.6-26.6 18.6l-5.3-11.2zM909.1 915.7s-27.8 5.1-32.7-9.4c-4.9-14.6 19.4-19 19.4-19l-3.4-14.2s-33.4 8.7-30.6 34c2.8 25.3 36.3 22.2 36.3 22.2l13.9-1.6-2.9-12z"/><path d="m931.8 907.3-24.8 7.4 2.6 13.5s20.7-4.3 26.3-7.1c2.8 10.5 18 79.4 18 79.4l101.7-20.7-19.9-82.2s14.3-3.6 27.3-11.2c-6.6-10-7.7-12-7.7-12l-15.8 4.6-107.7 28.3z" style="fill:#3d3d44"/><path class="st2" d="M886.1 875.4s-15.4-53.1-13.8-64.1c1.5-10.5 5.1-30.6 58.7-18.1 22-23.5 47.5-15.8 52.3-9.4 31.9-28.1 54.9-10 58.7-6.6 3.8 3.3 18.4 55.9 18.1 61.5-.3 5.6 11 55.7-72.5 75.1-83.3 19.3-101.5-38.4-101.5-38.4z"/><ellipse class="st5" cx="989.1" cy="841.8" rx="21.6" ry="19.9"/><ellipse class="st5" cx="950.3" cy="848.9" rx="21.6" ry="19.9"/><ellipse class="st6" cx="986.6" cy="831.4" rx="9.3" ry="8.6"/><ellipse class="st6" cx="953.9" cy="837.7" rx="9.3" ry="8.6"/><ellipse cx="980.5" cy="887.3" rx="8.6" ry="7.5" style="fill:#51636d;stroke:#58c2bd;stroke-width:6;stroke-miterlimit:10"/></g><g id="Layer_5"><path style="fill:#756e79" d="m780.3 839.7-1.4 1.1 17.8 26.7v-3.7z"/><path class="st9" d="M771.1 822.8 782 840l-1.2.9-2.8 2.1-7.7-11.8V822z"/><path class="st9" d="m679 864.3 1.1 7.7c.4.6.9 1.1 1.5 1.6l4.2-6.2v8.6c.3.1.6.2.9.2l1.7-1.1 1.9-4.6.8 2.5 1.7-8.8 2.7 3.2 3.4-3.9v13h.4l3.6-3.4 1.7 3.4h.5l3.1-3.4 1 2.5 3.4-14.6 4.6 7.9 4-4.3 2.4 11.9h.3l2.4-3.4v2.1l2.9-9 1.3 4.6 3.3-4.6 2 10.3h.2l2.2-7.6 5.6 3.4 6.3-9 1.1 2.9v-2.3l5 6.3 3.8-1.2 3.6 7 2.7-.8v-11.3l4.8 8.4 1.9-2.5c.5-1.3.8-2.6.8-4.1v-35.6c0-6-4.8-10.8-10.8-10.8h-74.3c-6 0-10.8 4.8-10.8 10.8v35.6c0 .7.1 1.4.2 2l.9-3.4z"/><circle class="st10" cx="690.9" cy="835.1" r="2.6"/><circle class="st10" cx="699.7" cy="835.1" r="2.6"/><circle class="st10" cx="708.5" cy="835.1" r="2.6"/><circle class="st10" cx="717.3" cy="835.1" r="2.6"/><circle class="st10" cx="726.2" cy="835.1" r="2.6"/><circle class="st10" cx="735" cy="835.1" r="2.6"/><circle class="st10" cx="744.2" cy="835.1" r="2.6"/><circle class="st10" cx="690.9" cy="843" r="2.6"/><circle class="st10" cx="699.7" cy="843" r="2.6"/><circle class="st10" cx="708.5" cy="843" r="2.6"/><circle class="st10" cx="717.3" cy="843" r="2.6"/><circle class="st10" cx="726.2" cy="843" r="2.6"/><circle class="st10" cx="735" cy="843" r="2.6"/><circle class="st10" cx="744.2" cy="843" r="2.6"/><circle class="st10" cx="690.9" cy="850.9" r="2.6"/><circle class="st10" cx="699.7" cy="850.9" r="2.6"/><circle class="st10" cx="708.5" cy="850.9" r="2.6"/><circle class="st10" cx="717.3" cy="850.9" r="2.6"/><circle class="st10" cx="726.2" cy="850.9" r="2.6"/><circle class="st10" cx="735" cy="850.9" r="2.6"/><circle class="st10" cx="744.2" cy="850.9" r="2.6"/><circle class="st10" cx="690.9" cy="858.8" r="2.6"/><circle class="st10" cx="699.7" cy="858.8" r="2.6"/><circle class="st10" cx="708.5" cy="858.8" r="2.6"/><circle class="st10" cx="717.3" cy="858.8" r="2.6"/><circle class="st10" cx="726.2" cy="858.8" r="2.6"/><circle class="st10" cx="735" cy="858.8" r="2.6"/><circle class="st10" cx="744.2" cy="858.8" r="2.6"/><path class="st5" d="M763 866.2h-6.9c-2.3 0-4.1-1.8-4.1-4.1v-27.6c0-2.3 1.8-4.1 4.1-4.1h6.9c2.3 0 4.1 1.8 4.1 4.1v27.6c0 2.3-1.9 4.1-4.1 4.1z"/><text id='radioText' transform="rotate(90 -38.065 793.64)" style="letter-spacing:-1;font-size:8px;font-family:'Noto Sans';stroke:#000;font-weight:bold;stroke-width:.25;stroke-miterlimit:10">七輪</text></g></svg>