<svg xmlns="http://www.w3.org/2000/svg" viewBox="0 0 1440 320"><path fill="#0099ff" fill-opacity="1" d="M0,256L17.1,234.7C34.3,213,69,171,103,176C137.1,181,171,235,206,234.7C240,235,274,181,309,133.3C342.9,85,377,43,411,26.7C445.7,11,480,21,514,58.7C548.6,96,583,160,617,186.7C651.4,213,686,203,720,181.3C754.3,160,789,128,823,138.7C857.1,149,891,203,926,213.3C960,224,994,192,1029,165.3C1062.9,139,1097,117,1131,90.7C1165.7,64,1200,32,1234,58.7C1268.6,85,1303,171,1337,197.3C1371.4,224,1406,192,1423,176L1440,160L1440,320L1422.9,320C1405.7,320,1371,320,1337,320C1302.9,320,1269,320,1234,320C1200,320,1166,320,1131,320C1097.1,320,1063,320,1029,320C994.3,320,960,320,926,320C891.4,320,857,320,823,320C788.6,320,754,320,720,320C685.7,320,651,320,617,320C582.9,320,549,320,514,320C480,320,446,320,411,320C377.1,320,343,320,309,320C274.3,320,240,320,206,320C171.4,320,137,320,103,320C68.6,320,34,320,17,320L0,320Z"></path></svg>