<svg version="1.2" xmlns="http://www.w3.org/2000/svg" viewBox="0 0 1440 1361.9999999999998" preserveAspectRatio="none" width="1440" height="1362"><style>.a{fill:#09f}</style><path class="a" d="m0 236l17.1-21.3c17.2-21.7 51.9-63.7 85.9-58.7 34.1 5 68 59 103 58.7 34 0.3 68-53.7 103-101.4 33.9-48.3 68-90.3 102-106.6 34.7-15.7 69-5.7 103 32 34.6 37.3 69 101.3 103 128 34.4 26.3 69 16.3 103-5.4 34.3-21.3 69-53.3 103-42.6 34.1 10.3 68 64.3 103 74.6 34 10.7 68-21.3 103-48 33.9-26.3 52.9-45.7 84-75.4 45-43 112-64.7 146-38 34.6 26.3 44 119.1 78 145.4 34.4 26.7 69-5.3 86-21.3l17-16v160h-17.1c-17.2 0-51.9 0-85.9 0-34.1 0-68 0-103 0-34 0-68 0-103 0-33.9 0-68 0-102 0-34.7 0-69 0-103 0-34.6 0-69 0-103 0-34.4 0-69 0-103 0-34.3 0-69 0-103 0-34.1 0-68 0-103 0-34 0-68 0-103 0-33.9 0-68 0-102 0-34.7 0-69 0-103 0-34.6 0-69 0-103 0-34.4 0-69 0-86 0h-17zm1440 844l-17.1 21.3c-17.2 21.7-51.9 63.7-85.9 58.7-34.1-5-68-59-103-58.7-34-0.3-68 53.7-103 101.4-33.9 48.3-68 90.3-102 106.6-34.7 15.7-69 5.7-103-32-34.6-37.3-69-101.3-103-128-34.4-26.3-69-16.3-103 5.4-34.3 21.3-69 53.3-103 42.6-34.1-10.3-68-64.3-103-74.6-34-10.7-68 21.3-103 48-33.9 26.3-68 48.3-102 74.6-34.7 26.7-69 50.6-114 26.6-38.3-20.5-58-106.9-92-133.2-34.4-26.7-69 5.3-86 21.3l-17 16v-160h17.1c17.2 0 51.9 0 85.9 0 34.1 0 68 0 103 0 34 0 68 0 103 0 33.9 0 68 0 102 0 34.7 0 69 0 103 0 34.6 0 69 0 103 0 34.4 0 69 0 103 0 34.3 0 69 0 103 0 34.1 0 68 0 103 0 34 0 68 0 103 0 33.9 0 68 0 102 0 34.7 0 69 0 103 0 34.6 0 69 0 103 0 34.4 0 69 0 86 0h17zm0-801v755h-1440v-755z"/></svg>